<svg width="32" height="32" viewBox="0 0 32 32" fill="none" xmlns="http://www.w3.org/2000/svg">
<mask id="mask0_202_1081" style="mask-type:luminance" maskUnits="userSpaceOnUse" x="4" y="1" width="25" height="26">
<path d="M4.35583 1.46692H28.2717V26.3075H4.35583V1.46692Z" fill="white"/>
</mask>
<g mask="url(#mask0_202_1081)">
<mask id="mask1_202_1081" style="mask-type:luminance" maskUnits="userSpaceOnUse" x="4" y="1" width="25" height="26">
<path d="M4.35583 1.46692H28.2717V26.3075H4.35583V1.46692Z" fill="white"/>
</mask>
<g mask="url(#mask1_202_1081)">
<path d="M13.449 5.19539C10.247 6.19857 7.80184 8.80199 7.00125 12.0606C6.20065 15.3192 7.16097 18.7593 9.53361 21.1321C9.58144 21.18 9.63326 21.2282 9.68149 21.28C9.04246 21.6799 8.43386 22.1265 7.86069 22.6161L7.75706 22.705C4.76041 19.635 3.63757 15.1952 4.81445 11.0696C5.99133 6.94413 9.28765 3.76495 13.453 2.73804C13.2641 3.47465 13.3418 4.26666 13.449 5.19539Z" fill="#CCD97D"/>
</g>
<mask id="mask2_202_1081" style="mask-type:luminance" maskUnits="userSpaceOnUse" x="4" y="1" width="25" height="26">
<path d="M4.35583 1.46692H28.2717V26.3075H4.35583V1.46692Z" fill="white"/>
</mask>
<g mask="url(#mask2_202_1081)">
<path d="M16.6653 2.39764C21.6841 2.5457 26.0759 5.81324 27.66 10.5778C29.244 15.3423 27.6829 20.589 23.7519 23.7126C19.8208 26.8362 14.3571 27.1714 10.0737 24.5517C10.8484 24.0037 11.6813 23.5432 12.5574 23.1785C15.891 24.5966 19.7392 24.0158 22.5058 21.677C25.2724 19.3381 26.4855 15.6403 25.6419 12.1171C24.7983 8.59398 22.0419 5.84657 18.516 5.01444C18.2669 4.65132 17.9879 4.28859 17.7089 3.92587C17.2983 3.39294 16.8874 2.86201 16.6653 2.39764Z" fill="#6C733D"/>
</g>
<mask id="mask3_202_1081" style="mask-type:luminance" maskUnits="userSpaceOnUse" x="4" y="1" width="25" height="26">
<path d="M4.35583 1.46692H28.2717V26.3075H4.35583V1.46692Z" fill="white"/>
</mask>
<g mask="url(#mask3_202_1081)">
<path d="M20.5787 21.2613C19.4499 20.5988 18.1991 20.1289 16.926 19.8327C14.6093 19.2998 12.2293 19.3369 10.316 19.8291V17.3865C12.5442 16.9536 15.1458 16.9684 17.655 17.5495C19.2761 17.927 20.8713 18.5337 22.311 19.4074L20.5787 21.2613Z" fill="#6C733D"/>
</g>
<mask id="mask4_202_1081" style="mask-type:luminance" maskUnits="userSpaceOnUse" x="4" y="1" width="25" height="26">
<path d="M4.35583 1.46692H28.2717V26.3075H4.35583V1.46692Z" fill="white"/>
</mask>
<g mask="url(#mask4_202_1081)">
<path d="M20.5477 16.3689C19.4264 15.7136 18.1864 15.2528 16.9244 14.9587C14.6078 14.4213 12.2277 14.4612 10.3145 14.9511V12.5125C12.5426 12.074 15.1443 12.0939 17.6534 12.6751C19.2745 13.049 20.8697 13.6596 22.3095 14.533L20.5477 16.3689Z" fill="#6C733D"/>
</g>
<mask id="mask5_202_1081" style="mask-type:luminance" maskUnits="userSpaceOnUse" x="4" y="1" width="25" height="26">
<path d="M4.35583 1.46692H28.2717V26.3075H4.35583V1.46692Z" fill="white"/>
</mask>
<g mask="url(#mask5_202_1081)">
<path d="M10.3145 17.0166C11.6948 16.3542 13.2198 15.836 14.7963 15.4509C17.2576 14.853 19.8816 14.5776 22.3095 14.5888L22.2983 16.9461C20.1331 16.9389 17.7794 17.1852 15.5588 17.7269C13.6085 18.2009 11.7837 18.8928 10.3145 19.8291V17.0166Z" fill="#CCD97D"/>
</g>
<mask id="mask6_202_1081" style="mask-type:luminance" maskUnits="userSpaceOnUse" x="4" y="1" width="25" height="26">
<path d="M4.35583 1.46692H28.2717V26.3075H4.35583V1.46692Z" fill="white"/>
</mask>
<g mask="url(#mask6_202_1081)">
<path d="M10.3145 12.1422C11.6948 11.4761 13.2198 10.9579 14.7963 10.5769C17.2576 9.97699 19.8816 9.70316 22.3095 9.71432L22.2983 12.072C20.1331 12.0609 17.7794 12.3088 15.5588 12.8493C13.6085 13.3228 11.7837 14.0188 10.3145 14.9511V12.1422Z" fill="#CCD97D"/>
</g>
<mask id="mask7_202_1081" style="mask-type:luminance" maskUnits="userSpaceOnUse" x="4" y="1" width="25" height="26">
<path d="M4.35583 1.46692H28.2717V26.3075H4.35583V1.46692Z" fill="white"/>
</mask>
<g mask="url(#mask7_202_1081)">
<path d="M8.63037 23.5118C10.2738 22.1091 12.154 21.1541 14.1374 20.5139C16.808 19.6589 19.6448 19.3979 22.3087 19.4074L22.2975 21.7647C19.9334 21.7556 17.4298 21.9832 15.118 22.7269C13.5857 23.2192 12.1313 23.9411 10.8394 24.9846C10.0509 24.5768 9.31001 24.0829 8.63037 23.5118Z" fill="#CCD97D"/>
</g>
<mask id="mask8_202_1081" style="mask-type:luminance" maskUnits="userSpaceOnUse" x="4" y="1" width="25" height="26">
<path d="M4.35583 1.46692H28.2717V26.3075H4.35583V1.46692Z" fill="white"/>
</mask>
<g mask="url(#mask8_202_1081)">
<path d="M15.5365 1.46692C15.0849 3.82463 20.0806 6.31506 17.7571 8.70625C16.6949 9.79801 14.9925 10.2827 13.7417 9.13554C12.9903 8.44716 12.7755 6.8739 13.3753 5.96749C13.9378 7.8955 14.5448 6.29314 14.5002 5.51588C14.4404 4.50344 13.7417 2.86201 15.5365 1.46692Z" fill="#CCD97D"/>
</g>
</g>
<path d="M2.3166 29.1337C2.44897 28.8857 2.63688 28.6925 2.88032 28.5541C3.12376 28.4156 3.40372 28.3464 3.72019 28.3464C4.12187 28.3464 4.45965 28.4536 4.73352 28.6682C5.00739 28.8827 5.18389 29.1741 5.263 29.5423H4.29989C4.24207 29.4206 4.16219 29.3277 4.06025 29.2638C3.95831 29.1999 3.84039 29.168 3.7065 29.168C3.49957 29.168 3.33449 29.2418 3.21125 29.3894C3.088 29.5369 3.02638 29.734 3.02638 29.9805C3.02638 30.23 3.088 30.4286 3.21125 30.5761C3.33449 30.7237 3.49957 30.7975 3.7065 30.7975C3.84039 30.7975 3.95831 30.7656 4.06025 30.7017C4.16219 30.6378 4.24207 30.5449 4.29989 30.4232H5.263C5.18389 30.7914 5.00739 31.0828 4.73352 31.2973C4.45965 31.5119 4.12187 31.6191 3.72019 31.6191C3.40372 31.6191 3.12376 31.5499 2.88032 31.4114C2.63688 31.273 2.44897 31.0798 2.3166 30.8318C2.18423 30.5837 2.11804 30.3 2.11804 29.9805C2.11804 29.664 2.18423 29.3818 2.3166 29.1337ZM6.57757 28.3783V31.5963H5.68292V28.3783H6.57757ZM10.0648 31.5963H9.17015L7.9788 29.7979V31.5963H7.08416V28.3783H7.9788L9.17015 30.1996V28.3783H10.0648V31.5963ZM11.4662 29.095V29.6199H12.4932V30.3H11.4662V30.8797H12.6301V31.5963H10.5715V28.3783H12.6301V29.095H11.4662ZM12.1372 27.7438L10.996 28.1912V27.5841L12.1372 27.0683V27.7438ZM16.8248 28.3783V31.5963H15.9302V29.8207L15.3231 31.5963H14.5745L13.9628 29.807V31.5963H13.0682V28.3783H14.15L14.9579 30.4689L15.7476 28.3783H16.8248ZM19.3672 31.0714H18.2261L18.0527 31.5963H17.1124L18.2854 28.3783H19.317L20.4856 31.5963H19.5407L19.3672 31.0714ZM19.1436 30.3867L18.7967 29.346L18.4543 30.3867H19.1436ZM22.8272 29.4373C22.7754 29.3521 22.7047 29.2867 22.6149 29.241C22.5252 29.1954 22.4194 29.1725 22.2977 29.1725C22.0725 29.1725 21.8953 29.2456 21.7659 29.3916C21.6366 29.5377 21.5719 29.734 21.5719 29.9805C21.5719 30.2574 21.6412 30.4681 21.7796 30.6127C21.9181 30.7572 22.1197 30.8295 22.3844 30.8295C22.6979 30.8295 22.9215 30.688 23.0554 30.405H22.1562V29.7614H23.8268V30.6286C23.7568 30.799 23.6541 30.9588 23.5187 31.1079C23.3833 31.257 23.2121 31.3795 23.0052 31.4754C22.7983 31.5712 22.5624 31.6191 22.2977 31.6191C21.9751 31.6191 21.6899 31.5499 21.4418 31.4114C21.1938 31.273 21.0021 31.0798 20.8667 30.8318C20.7313 30.5837 20.6636 30.3 20.6636 29.9805C20.6636 29.664 20.7313 29.3818 20.8667 29.1337C21.0021 28.8857 21.1931 28.6925 21.4396 28.5541C21.686 28.4156 21.9706 28.3464 22.2931 28.3464C22.6979 28.3464 23.0326 28.4437 23.2973 28.6385C23.5621 28.8333 23.7264 29.0995 23.7903 29.4373H22.8272ZM27.2047 31.5963H26.31L25.1187 29.7979V31.5963H24.224V28.3783H25.1187L26.31 30.1996V28.3783H27.2047V31.5963ZM30.6372 28.3783L29.5052 30.5739V31.5963H28.606V30.5739L27.474 28.3783H28.4965L29.0625 29.6199L29.6285 28.3783H30.6372Z" fill="#F2F2F2"/>
</svg>
