<svg width="32" height="32" viewBox="0 0 32 32" fill="none" xmlns="http://www.w3.org/2000/svg">
<path d="M17.5 11.5H14.5V8.5H17.5M17.5 23.5H14.5V14.5H17.5M16 1C14.0302 1 12.0796 1.38799 10.2597 2.14181C8.43986 2.89563 6.78628 4.00052 5.3934 5.3934C2.58035 8.20644 1 12.0218 1 16C1 19.9782 2.58035 23.7936 5.3934 26.6066C6.78628 27.9995 8.43986 29.1044 10.2597 29.8582C12.0796 30.612 14.0302 31 16 31C19.9782 31 23.7936 29.4196 26.6066 26.6066C29.4196 23.7936 31 19.9782 31 16C31 14.0302 30.612 12.0796 29.8582 10.2597C29.1044 8.43986 27.9995 6.78628 26.6066 5.3934C25.2137 4.00052 23.5601 2.89563 21.7403 2.14181C19.9204 1.38799 17.9698 1 16 1Z" fill="#202427"/>
</svg>
