<svg width="32" height="32" viewBox="0 0 32 32" fill="none" xmlns="http://www.w3.org/2000/svg">
<path d="M25.3333 5.33335H22.6666V4.00002C22.6666 3.6464 22.5262 3.30726 22.2761 3.05721C22.0261 2.80716 21.6869 2.66669 21.3333 2.66669C20.9797 2.66669 20.6405 2.80716 20.3905 3.05721C20.1404 3.30726 20 3.6464 20 4.00002V5.33335H12V4.00002C12 3.6464 11.8595 3.30726 11.6094 3.05721C11.3594 2.80716 11.0202 2.66669 10.6666 2.66669C10.313 2.66669 9.97387 2.80716 9.72382 3.05721C9.47377 3.30726 9.33329 3.6464 9.33329 4.00002V5.33335H6.66663C5.60576 5.33335 4.58834 5.75478 3.8382 6.50493C3.08805 7.25507 2.66663 8.27249 2.66663 9.33335V25.3334C2.66663 26.3942 3.08805 27.4116 3.8382 28.1618C4.58834 28.9119 5.60576 29.3334 6.66663 29.3334H25.3333C26.3942 29.3334 27.4116 28.9119 28.1617 28.1618C28.9119 27.4116 29.3333 26.3942 29.3333 25.3334V9.33335C29.3333 8.27249 28.9119 7.25507 28.1617 6.50493C27.4116 5.75478 26.3942 5.33335 25.3333 5.33335ZM26.6666 25.3334C26.6666 25.687 26.5262 26.0261 26.2761 26.2762C26.0261 26.5262 25.6869 26.6667 25.3333 26.6667H6.66663C6.313 26.6667 5.97387 26.5262 5.72382 26.2762C5.47377 26.0261 5.33329 25.687 5.33329 25.3334V16H26.6666V25.3334ZM26.6666 13.3334H5.33329V9.33335C5.33329 8.97973 5.47377 8.64059 5.72382 8.39054C5.97387 8.1405 6.313 8.00002 6.66663 8.00002H9.33329V9.33335C9.33329 9.68698 9.47377 10.0261 9.72382 10.2762C9.97387 10.5262 10.313 10.6667 10.6666 10.6667C11.0202 10.6667 11.3594 10.5262 11.6094 10.2762C11.8595 10.0261 12 9.68698 12 9.33335V8.00002H20V9.33335C20 9.68698 20.1404 10.0261 20.3905 10.2762C20.6405 10.5262 20.9797 10.6667 21.3333 10.6667C21.6869 10.6667 22.0261 10.5262 22.2761 10.2762C22.5262 10.0261 22.6666 9.68698 22.6666 9.33335V8.00002H25.3333C25.6869 8.00002 26.0261 8.1405 26.2761 8.39054C26.5262 8.64059 26.6666 8.97973 26.6666 9.33335V13.3334Z" fill="#202427"/>
</svg>
