<svg width="32" height="32" viewBox="0 0 32 32" fill="none" xmlns="http://www.w3.org/2000/svg">
<path d="M5.33329 5.33331L7.99996 10.6666H12L9.33329 5.33331H12L14.6666 10.6666H18.6666L16 5.33331H18.6666L21.3333 10.6666H25.3333L22.6666 5.33331H26.6666C27.4 5.33331 28.028 5.59465 28.5506 6.11731C29.0733 6.63998 29.3342 7.26754 29.3333 7.99998V24C29.3333 24.7333 29.0724 25.3613 28.5506 25.884C28.0288 26.4066 27.4008 26.6675 26.6666 26.6666H5.33329C4.59996 26.6666 3.9724 26.4058 3.45063 25.884C2.92885 25.3622 2.66751 24.7342 2.66663 24V7.99998C2.66663 7.26665 2.92796 6.63909 3.45063 6.11731C3.97329 5.59553 4.60085 5.3342 5.33329 5.33331ZM5.33329 13.3333V24H26.6666V13.3333H5.33329Z" fill="black"/>
</svg>
