<svg width="32" height="32" viewBox="0 0 32 32" fill="none" xmlns="http://www.w3.org/2000/svg">
<path d="M16 27.5186C14.1025 27.5201 12.2339 27.0539 10.5595 26.1614C8.88512 25.2688 7.45655 23.9774 6.40002 22.4013C6.41336 21.412 7.05321 19.9693 10.0172 18.7213C11.8988 17.8748 13.9386 17.4371 16.0019 17.4371C18.0652 17.4371 20.105 17.8748 21.9866 18.7213C24.9533 19.972 25.5866 21.412 25.604 22.4013C24.5462 23.9771 23.1168 25.2683 21.4419 26.1608C19.7669 27.0532 17.8979 27.5196 16 27.5186ZM16 14.3986C15.0506 14.3986 14.1226 14.1171 13.3333 13.5897C12.5439 13.0623 11.9287 12.3126 11.5654 11.4355C11.2021 10.5584 11.1069 9.59332 11.2921 8.66221C11.4773 7.7311 11.9346 6.87582 12.6059 6.20453C13.2772 5.53324 14.1325 5.07609 15.0636 4.89088C15.9947 4.70567 16.9598 4.80072 17.8369 5.16403C18.714 5.52733 19.4636 6.14255 19.991 6.93191C20.5184 7.72126 20.7999 8.64929 20.7999 9.59864C20.8005 10.2293 20.6767 10.8539 20.4357 11.4368C20.1947 12.0196 19.8412 12.5492 19.3955 12.9953C18.9497 13.4415 18.4203 13.7954 17.8377 14.0369C17.2551 14.2784 16.6306 14.4026 16 14.4026V14.3986Z" fill="#202427"/>
</svg>
