<svg width="32" height="32" viewBox="0 0 32 32" fill="none" xmlns="http://www.w3.org/2000/svg">
<path d="M3 9.33335C3 8.36089 3.38631 7.42826 4.07394 6.74063C4.76158 6.053 5.69421 5.66669 6.66667 5.66669H25.3333C26.3058 5.66669 27.2384 6.053 27.9261 6.74063C28.6137 7.42826 29 8.36089 29 9.33335V13.3334C29 13.5986 28.8946 13.8529 28.7071 14.0405C28.5196 14.228 28.2652 14.3334 28 14.3334C27.558 14.3334 27.134 14.5089 26.8215 14.8215C26.5089 15.1341 26.3333 15.558 26.3333 16C26.3333 16.442 26.5089 16.866 26.8215 17.1785C27.134 17.4911 27.558 17.6667 28 17.6667C28.2652 17.6667 28.5196 17.772 28.7071 17.9596C28.8946 18.1471 29 18.4015 29 18.6667V22.6667C29 23.6391 28.6137 24.5718 27.9261 25.2594C27.2384 25.947 26.3058 26.3334 25.3333 26.3334H6.66667C5.69421 26.3334 4.76158 25.947 4.07394 25.2594C3.38631 24.5718 3 23.6391 3 22.6667V18.6667C3 18.4015 3.10536 18.1471 3.29289 17.9596C3.48043 17.772 3.73478 17.6667 4 17.6667C4.44203 17.6667 4.86595 17.4911 5.17851 17.1785C5.49107 16.866 5.66667 16.442 5.66667 16C5.66667 15.558 5.49107 15.1341 5.17851 14.8215C4.86595 14.5089 4.44203 14.3334 4 14.3334C3.73478 14.3334 3.48043 14.228 3.29289 14.0405C3.10536 13.8529 3 13.5986 3 13.3334V9.33335ZM17 10.6667C17 10.4015 16.8946 10.1471 16.7071 9.95958C16.5196 9.77204 16.2652 9.66669 16 9.66669C15.7348 9.66669 15.4804 9.77204 15.2929 9.95958C15.1054 10.1471 15 10.4015 15 10.6667V11.3334C15 11.5986 15.1054 11.8529 15.2929 12.0405C15.4804 12.228 15.7348 12.3334 16 12.3334C16.2652 12.3334 16.5196 12.228 16.7071 12.0405C16.8946 11.8529 17 11.5986 17 11.3334V10.6667ZM17 15.6667C17 15.4015 16.8946 15.1471 16.7071 14.9596C16.5196 14.772 16.2652 14.6667 16 14.6667C15.7348 14.6667 15.4804 14.772 15.2929 14.9596C15.1054 15.1471 15 15.4015 15 15.6667V16.3334C15 16.5986 15.1054 16.8529 15.2929 17.0405C15.4804 17.228 15.7348 17.3334 16 17.3334C16.2652 17.3334 16.5196 17.228 16.7071 17.0405C16.8946 16.8529 17 16.5986 17 16.3334V15.6667ZM17 20.6667C17 20.4015 16.8946 20.1471 16.7071 19.9596C16.5196 19.772 16.2652 19.6667 16 19.6667C15.7348 19.6667 15.4804 19.772 15.2929 19.9596C15.1054 20.1471 15 20.4015 15 20.6667V21.3334C15 21.5986 15.1054 21.8529 15.2929 22.0405C15.4804 22.228 15.7348 22.3334 16 22.3334C16.2652 22.3334 16.5196 22.228 16.7071 22.0405C16.8946 21.8529 17 21.5986 17 21.3334V20.6667Z" fill="#202427"/>
</svg>
