<svg width="33" height="33" viewBox="0 0 33 33" fill="none" xmlns="http://www.w3.org/2000/svg">
<path d="M22.8333 8.54174C21.9221 7.50111 21.4199 6.16494 21.42 4.78174H17.3V21.3151C17.2689 22.21 16.8914 23.0578 16.2471 23.6797C15.6028 24.3016 14.7421 24.6489 13.8467 24.6484C11.9533 24.6484 10.38 23.1017 10.38 21.1817C10.38 18.8884 12.5933 17.1684 14.8733 17.8751V13.6617C10.2733 13.0484 6.24666 16.6217 6.24666 21.1817C6.24666 25.6217 9.92666 28.7817 13.8333 28.7817C18.02 28.7817 21.42 25.3817 21.42 21.1817V12.7951C23.0907 13.9949 25.0965 14.6386 27.1533 14.6351V10.5151C27.1533 10.5151 24.6467 10.6351 22.8333 8.54174Z" fill="#F2F2F2"/>
</svg>
