<svg width="33" height="33" viewBox="0 0 33 33" fill="none" xmlns="http://www.w3.org/2000/svg">
<path d="M14.2667 20.7817L21.1867 16.7817L14.2667 12.7817V20.7817ZM29.68 10.3417C29.8533 10.9684 29.9733 11.8084 30.0533 12.875C30.1467 13.9417 30.1867 14.8617 30.1867 15.6617L30.2667 16.7817C30.2667 19.7017 30.0533 21.8484 29.68 23.2217C29.3467 24.4217 28.5733 25.195 27.3733 25.5284C26.7467 25.7017 25.6 25.8217 23.84 25.9017C22.1067 25.995 20.52 26.035 19.0533 26.035L16.9333 26.115C11.3467 26.115 7.86667 25.9017 6.49334 25.5284C5.29334 25.195 4.52001 24.4217 4.18667 23.2217C4.01334 22.595 3.89334 21.755 3.81334 20.6884C3.72001 19.6217 3.68001 18.7017 3.68001 17.9017L3.60001 16.7817C3.60001 13.8617 3.81334 11.715 4.18667 10.3417C4.52001 9.1417 5.29334 8.36836 6.49334 8.03503C7.12001 7.8617 8.26667 7.7417 10.0267 7.6617C11.76 7.56836 13.3467 7.52836 14.8133 7.52836L16.9333 7.44836C22.52 7.44836 26 7.6617 27.3733 8.03503C28.5733 8.36836 29.3467 9.1417 29.68 10.3417Z" fill="#F2F2F2"/>
</svg>
