<svg width="33" height="33" viewBox="0 0 33 33" fill="none" xmlns="http://www.w3.org/2000/svg">
<path d="M30.6933 7.71614C29.6525 8.18592 28.5467 8.49608 27.4133 8.63614C28.6073 7.91813 29.4987 6.78957 29.9205 5.46174C28.7995 6.13054 27.573 6.60394 26.2933 6.86174C25.7576 6.28096 25.1056 5.81941 24.3798 5.50709C23.654 5.19478 22.8706 5.03868 22.0805 5.04894C20.5676 5.05402 19.1184 5.65916 18.0511 6.73155C16.9838 7.80394 16.3856 9.25596 16.3877 10.7689C16.3881 11.2088 16.4375 11.6472 16.5349 12.0761C14.2614 11.9611 12.0374 11.3699 10.0069 10.3407C7.97635 9.31155 6.18463 7.86738 4.74774 6.10174C4.01598 7.35752 3.79195 8.84553 4.12153 10.2611C4.45111 11.6767 5.30935 12.9127 6.52054 13.7161C5.61293 13.7053 4.72122 13.4765 3.92054 13.0489V13.0889C3.92064 14.41 4.37736 15.6904 5.21334 16.7133C6.04932 17.7361 7.21316 18.4386 8.50774 18.7017C7.66898 18.9321 6.78811 18.9638 5.93494 18.7945C6.29784 19.9306 7.00723 20.9245 7.9636 21.637C8.91997 22.3495 10.0754 22.7447 11.2677 22.7673C9.24596 24.3685 6.73953 25.2341 4.16054 25.2217C3.706 25.2227 3.25183 25.196 2.80054 25.1417C5.4162 26.8259 8.46239 27.7192 11.5733 27.7145C13.7151 27.7281 15.8382 27.3164 17.8196 26.5032C19.801 25.69 21.6012 24.4915 23.1159 22.9773C24.6306 21.4631 25.8296 19.6632 26.6434 17.682C27.4571 15.7009 27.8695 13.5779 27.8565 11.4361C27.8565 11.1833 27.8565 10.9433 27.8437 10.6889C28.9668 9.87988 29.9325 8.8724 30.6933 7.71614Z" fill="#F2F2F2"/>
</svg>
